<svg xmlns="http://www.w3.org/2000/svg" width="45" height="45" viewBox="0 0 45 45">
  <g id="people_icon_45" transform="translate(-21 -132)">
    <path id="Path_481" data-name="Path 481" d="M22.5,0A22.5,22.5,0,1,1,0,22.5,22.5,22.5,0,0,1,22.5,0Z" transform="translate(21 132)" fill="#eee"/>
    <path id="Intersection_1" data-name="Intersection 1" d="M16.533,34A22.438,22.438,0,0,1,0,26.761c2.189-5.125,11.546-7.7,16.534-7.7s14.344,2.579,16.533,7.7A22.44,22.44,0,0,1,16.533,34ZM9.054,7.48a7.48,7.48,0,1,1,7.48,7.48A7.48,7.48,0,0,1,9.054,7.48Z" transform="translate(26.967 143)" fill="#707070"/>
  </g>
</svg>
