<svg xmlns="http://www.w3.org/2000/svg" width="80" height="80" viewBox="0 0 80 80">
  <g id="people_icon_80" transform="translate(-21 -132)">
    <path id="Path_481" data-name="Path 481" d="M40,0A40,40,0,1,1,0,40,40,40,0,0,1,40,0Z" transform="translate(21 132)" fill="#eee"/>
    <path id="Intersection_1" data-name="Intersection 1" d="M29.393,60.444A39.89,39.89,0,0,1,0,47.575c3.891-9.111,20.526-13.7,29.393-13.7s25.5,4.586,29.393,13.7A39.893,39.893,0,0,1,29.393,60.444ZM16.1,13.3a13.3,13.3,0,1,1,13.3,13.3A13.3,13.3,0,0,1,16.1,13.3Z" transform="translate(31.607 151.556)" fill="#707070"/>
  </g>
</svg>
