<svg xmlns="http://www.w3.org/2000/svg" width="22" height="21.938" viewBox="0 0 22 21.938">
  <g id="have_notice" transform="translate(2247 -534)">
    <path id="Subtraction_1" data-name="Subtraction 1" d="M9,21.938a2.253,2.253,0,0,1-2.25-2.25h4.5A2.253,2.253,0,0,1,9,21.938Zm9-3.375H0V17.438l2.25-2.25V9.563A7.983,7.983,0,0,1,3.57,4.995,6.21,6.21,0,0,1,7.312,2.453V1.688a1.688,1.688,0,0,1,3.375,0v.765A6.226,6.226,0,0,1,13.462,3.9a5,5,0,0,0,2.288,6.569v4.721L18,17.438v1.124Z" transform="translate(-2247 534)" fill="#333"/>
    <circle id="Ellipse_139" data-name="Ellipse 139" cx="4" cy="4" r="4" transform="translate(-2233 536)" fill="#eb715a"/>
  </g>
</svg>
