<svg xmlns="http://www.w3.org/2000/svg" xmlns:xlink="http://www.w3.org/1999/xlink" width="58" height="58" viewBox="0 0 58 58">
  <defs>
    <filter id="Ellipse_136" x="0" y="0" width="58" height="58" filterUnits="userSpaceOnUse">
      <feOffset dy="3" input="SourceAlpha"/>
      <feGaussianBlur stdDeviation="3" result="blur"/>
      <feFlood flood-opacity="0.161"/>
      <feComposite operator="in" in2="blur"/>
      <feComposite in="SourceGraphic"/>
    </filter>
  </defs>
  <g id="position" transform="translate(2318 -518)">
    <g transform="matrix(1, 0, 0, 1, -2318, 518)" filter="url(#Ellipse_136)">
      <circle id="Ellipse_136-2" data-name="Ellipse 136" cx="20" cy="20" r="20" transform="translate(9 6)" fill="#fff"/>
    </g>
    <path id="Path_614" data-name="Path 614" d="M12,8a4,4,0,1,0,4,4A4,4,0,0,0,12,8Zm8.94,3A8.994,8.994,0,0,0,13,3.06V1H11V3.06A8.994,8.994,0,0,0,3.06,11H1v2H3.06A8.994,8.994,0,0,0,11,20.94V23h2V20.94A8.994,8.994,0,0,0,20.94,13H23V11H20.94ZM12,19a7,7,0,1,1,7-7A6.995,6.995,0,0,1,12,19Z" transform="translate(-2301 532)" fill="#333"/>
  </g>
</svg>
